<svg width="14" height="15" viewBox="0 0 14 15" fill="none" xmlns="http://www.w3.org/2000/svg">
<path d="M3 6.00057C1.34315 6.00057 0 4.65743 0 3.00057C0 1.34372 1.34315 0.000573006 3 0.000573006C4.65685 0.000573006 6 1.34372 6 3.00057C6 4.65743 4.65685 6.00057 3 6.00057Z" fill="#071219"/>
<path d="M3 14C1.34315 14 0 12.6569 0 11C0 9.34315 1.34315 8 3 8C4.65685 8 6 9.34315 6 11C6 12.6569 4.65685 14 3 14Z" fill="#071219"/>
<path d="M8 11.0288C8 12.6856 9.34315 14.0288 11 14.0288C12.6569 14.0288 14 12.6856 14 11.0288C14 9.37192 12.6569 8.02877 11 8.02877C9.34315 8.02877 8 9.37192 8 11.0288Z" fill="#071219"/>
<path d="M11 5.99121C9.34315 5.99121 8 4.64806 8 2.99121C8 1.33436 9.34315 -0.00878906 11 -0.00878906C12.6569 -0.00878906 14 1.33436 14 2.99121C14 4.64806 12.6569 5.99121 11 5.99121Z" fill="#071219"/>
</svg>
