<svg width="14" height="14" viewBox="0 0 14 14" fill="none" xmlns="http://www.w3.org/2000/svg">
<path fill-rule="evenodd" clip-rule="evenodd" d="M13.0813 0.804351C12.7063 0.429391 12.1976 0.21875 11.6673 0.21875C11.1369 0.21875 10.6283 0.429391 10.2532 0.804351L9.13313 1.92441L3.86221 7.19533C3.77684 7.28067 3.71623 7.38759 3.68687 7.50468L3.02017 10.1715C2.99219 10.2832 2.99362 10.4003 3.02435 10.5113C3.05507 10.6223 3.11402 10.7234 3.19547 10.8049C3.27691 10.8863 3.37806 10.9453 3.48907 10.976C3.60008 11.0067 3.71715 11.0082 3.82888 10.9802L6.49567 10.3135C6.61276 10.2841 6.71968 10.2235 6.80502 10.1381L12.0379 4.90588L13.196 3.74716C13.571 3.37209 13.7816 2.86345 13.7816 2.33309C13.7816 1.80274 13.571 1.2941 13.196 0.919024L13.0813 0.804351ZM11.1959 1.74706C11.3209 1.62208 11.4905 1.55186 11.6673 1.55186C11.844 1.55186 12.0136 1.62208 12.1386 1.74706L12.2533 1.86174C12.3783 1.98676 12.4485 2.15631 12.4485 2.33309C12.4485 2.50988 12.3783 2.67942 12.2533 2.80445L11.5753 3.48248L10.5385 2.40443L11.1959 1.74706ZM9.59582 3.34714L10.6325 4.42519L5.99232 9.06475L4.58291 9.41744L4.9356 8.00737L9.59582 3.34714ZM1.66677 4.33319C1.66677 4.15637 1.73701 3.98679 1.86204 3.86176C1.98707 3.73673 2.15665 3.66649 2.33347 3.66649H5.66697C5.84379 3.66649 6.01336 3.59625 6.13839 3.47122C6.26342 3.34619 6.33367 3.17661 6.33367 2.99979C6.33367 2.82297 6.26342 2.65339 6.13839 2.52836C6.01336 2.40333 5.84379 2.33309 5.66697 2.33309H2.33347C1.80301 2.33309 1.29428 2.54382 0.919189 2.91891C0.544098 3.294 0.333374 3.80273 0.333374 4.33319V11.6669C0.333374 12.1973 0.544098 12.7061 0.919189 13.0812C1.29428 13.4563 1.80301 13.667 2.33347 13.667H9.66716C10.1976 13.667 10.7064 13.4563 11.0814 13.0812C11.4565 12.7061 11.6673 12.1973 11.6673 11.6669V8.33338C11.6673 8.15656 11.597 7.98699 11.472 7.86196C11.347 7.73693 11.1774 7.66668 11.0006 7.66668C10.8237 7.66668 10.6542 7.73693 10.5291 7.86196C10.4041 7.98699 10.3339 8.15656 10.3339 8.33338V11.6669C10.3339 11.8437 10.2636 12.0133 10.1386 12.1383C10.0136 12.2633 9.84398 12.3336 9.66716 12.3336H2.33347C2.15665 12.3336 1.98707 12.2633 1.86204 12.1383C1.73701 12.0133 1.66677 11.8437 1.66677 11.6669V4.33319Z" fill="#201F25"/>
</svg>
