<svg width="30" height="30" viewBox="0 0 30 30" fill="none" xmlns="http://www.w3.org/2000/svg">
<path d="M15 30C23.2843 30 30 23.2843 30 15C30 6.71573 23.2843 0 15 0C6.71573 0 0 6.71573 0 15C0 23.2843 6.71573 30 15 30Z" fill="white"/>
<path d="M15 18.8182C13.9874 18.8182 13.0162 18.4159 12.3001 17.6999C11.5841 16.9838 11.1818 16.0126 11.1818 15C11.1818 13.9874 11.5841 13.0162 12.3001 12.3001C13.0162 11.5841 13.9874 11.1818 15 11.1818C16.0126 11.1818 16.9838 11.5841 17.6999 12.3001C18.4159 13.0162 18.8182 13.9874 18.8182 15C18.8182 16.0126 18.4159 16.9838 17.6999 17.6999C16.9838 18.4159 16.0126 18.8182 15 18.8182ZM14.3636 8H15.6364V9.90909H14.3636V8ZM14.3636 20.0909H15.6364V22H14.3636V20.0909ZM9.60045 10.5003L10.5003 9.60045L11.85 10.9502L10.9502 11.85L9.60045 10.5009V10.5003ZM18.15 19.0498L19.0498 18.15L20.3995 19.4997L19.4997 20.3995L18.15 19.0498ZM19.4997 9.59982L20.3995 10.5003L19.0498 11.85L18.15 10.9502L19.4997 9.60045V9.59982ZM10.9502 18.15L11.85 19.0498L10.5003 20.3995L9.60045 19.4997L10.9502 18.15ZM22 14.3636V15.6364H20.0909V14.3636H22ZM9.90909 14.3636V15.6364H8V14.3636H9.90909Z" fill="#E0662D"/>
</svg>
