<svg width="34" height="34" viewBox="0 0 34 34" fill="none" xmlns="http://www.w3.org/2000/svg">
<path d="M17 33C25.8366 33 33 25.8366 33 17C33 8.16344 25.8366 1 17 1C8.16344 1 1 8.16344 1 17C1 25.8366 8.16344 33 17 33Z" fill="#E8F6FF" stroke="#0B73B0" stroke-opacity="0.3"/>
<path d="M17.0001 17.4074C19.0712 17.4074 20.7501 15.7492 20.7501 13.7037C20.7501 11.6582 19.0712 10 17.0001 10C14.929 10 13.25 11.6582 13.25 13.7037C13.25 15.7492 14.929 17.4074 17.0001 17.4074Z" fill="#0B73B0"/>
<path d="M22.9935 21.117C22.9969 21.0643 22.9969 21.0114 22.9935 20.9587C22.9786 20.7639 22.9234 20.5736 22.8307 20.3986C22.4662 19.6862 21.4442 19.3636 20.5914 19.1809C19.983 19.0543 19.3648 18.9728 18.7426 18.9374L18.0917 18.8887H17.7987H17.4342H16.5619H16.1973H15.9044L15.2534 18.9374C14.6312 18.9728 14.0131 19.0543 13.4046 19.1809C12.5519 19.3392 11.5298 19.668 11.1653 20.3986C11.0727 20.5736 11.0174 20.7639 11.0025 20.9587C10.9992 21.0114 10.9992 21.0643 11.0025 21.117C10.9994 21.1697 10.9994 21.2226 11.0025 21.2753C11.0202 21.4684 11.0777 21.6566 11.1718 21.8293C11.5363 22.5416 12.5584 22.8643 13.4111 23.047C14.0207 23.1677 14.6384 23.2491 15.2599 23.2905L15.9109 23.3331H16.0671H16.2038H17.8052H17.9419H18.0982L18.7491 23.2905C19.3706 23.2491 19.9883 23.1677 20.5979 23.047C21.4507 22.8826 22.4727 22.5599 22.8373 21.8293C22.9269 21.6511 22.9821 21.4594 23 21.2631C23.0008 21.2143 22.9987 21.1655 22.9935 21.117Z" fill="#0B73B0"/>
</svg>
