<svg width="60" height="36" viewBox="0 0 60 36" fill="none" xmlns="http://www.w3.org/2000/svg">
<rect x="0.5" y="0.5" width="59" height="35" rx="3.5" stroke="#CBD8E0"/>
<path d="M15.7042 10.333C17.7708 10.333 21.0208 11.0163 21.8208 11.583C22.0042 11.7163 22.1042 11.9163 22.1042 12.133V18.6497C22.1042 18.8497 22.0042 19.0497 21.8542 19.1663C21.8042 19.1997 20.6375 20.1164 19.4208 20.7997C17.9042 21.633 16.8542 22.7997 16.6042 23.533C16.3042 24.433 15.8708 25.6663 14.5042 25.6663C13.8542 25.6663 13.3208 25.2997 13.0375 24.6663C12.4708 23.3663 13.0708 21.5663 14.0708 20.1497C13.4042 19.9997 12.5708 19.783 12.0708 19.633C11.1542 19.3497 10.5542 18.683 10.4208 17.8663C10.3042 17.033 10.7208 16.183 11.6042 15.533C12.2542 13.783 13.3708 11.0163 14.1875 10.5663C14.5042 10.3997 15.0542 10.333 15.7042 10.333ZM20.7708 12.533C19.5042 11.9997 15.6042 11.4497 14.8708 11.733C14.4875 12.083 13.5042 14.3163 12.8208 16.1997C12.7708 16.333 12.6875 16.4497 12.5708 16.533C12.0208 16.8997 11.7375 17.333 11.7875 17.6997C11.8375 17.9997 12.1042 18.2497 12.5042 18.383C13.3375 18.6497 15.4042 19.0997 15.4375 19.0997C15.6708 19.1497 15.8542 19.3164 15.9375 19.5497C16.0042 19.783 15.9542 20.033 15.7875 20.1997C14.2875 21.8163 14.0208 23.4664 14.3042 24.133C14.3875 24.333 14.4875 24.333 14.5375 24.333C14.8708 24.333 15.0208 24.0997 15.3708 23.0997C15.7708 21.933 17.1542 20.533 18.8042 19.633C19.6042 19.1997 20.4042 18.6163 20.8042 18.3163V12.533H20.7708ZM23.4042 12.0663V18.7164C23.4042 19.3164 23.8875 19.7997 24.4875 19.7997C25.0875 19.7997 25.5708 19.3164 25.5708 18.7164V12.0663C25.5708 11.4663 25.0875 10.983 24.4875 10.983C23.9042 10.983 23.4042 11.483 23.4042 12.0663Z" fill="#52595E"/>
<path d="M33.008 23V13.13H34.632L39.994 19.948H39.616V13.13H41.646V23H40.022L34.674 16.182H35.038V23H33.008ZM46.8647 23.154C46.1087 23.154 45.4507 23.0047 44.8907 22.706C44.3401 22.398 43.9107 21.9687 43.6027 21.418C43.3041 20.8673 43.1547 20.2093 43.1547 19.444C43.1547 18.688 43.3041 18.0347 43.6027 17.484C43.9107 16.9333 44.3401 16.5087 44.8907 16.21C45.4507 15.9113 46.1087 15.762 46.8647 15.762C47.6207 15.762 48.2787 15.9113 48.8387 16.21C49.3987 16.5087 49.8281 16.9333 50.1267 17.484C50.4347 18.0347 50.5887 18.688 50.5887 19.444C50.5887 20.2093 50.4347 20.8673 50.1267 21.418C49.8281 21.9687 49.3987 22.398 48.8387 22.706C48.2787 23.0047 47.6207 23.154 46.8647 23.154ZM46.8647 21.558C47.3501 21.558 47.7327 21.3853 48.0127 21.04C48.3021 20.6947 48.4467 20.1627 48.4467 19.444C48.4467 18.7253 48.3021 18.198 48.0127 17.862C47.7327 17.526 47.3501 17.358 46.8647 17.358C46.3794 17.358 45.9921 17.526 45.7027 17.862C45.4227 18.198 45.2827 18.7253 45.2827 19.444C45.2827 20.1627 45.4227 20.6947 45.7027 21.04C45.9921 21.3853 46.3794 21.558 46.8647 21.558Z" fill="#52595E"/>
</svg>
