<svg width="12" height="16" viewBox="0 0 12 16" fill="none" xmlns="http://www.w3.org/2000/svg">
<path d="M0.522 1.88433L6 0.666992L11.478 1.88433C11.626 1.91724 11.7584 1.99964 11.8533 2.11793C11.9482 2.23622 12 2.38334 12 2.53499V9.19299C12 9.85148 11.8373 10.4998 11.5266 11.0803C11.2158 11.6609 10.7666 12.1558 10.2187 12.521L6 15.3337L1.78133 12.521C1.23352 12.1558 0.784307 11.6611 0.473565 11.0806C0.162824 10.5002 0.000157571 9.85204 0 9.19366V2.53499C2.60252e-05 2.38334 0.0517586 2.23622 0.14666 2.11793C0.241561 1.99964 0.373958 1.91724 0.522 1.88433ZM6 9.00033L7.95933 10.0303L7.58533 7.84899L9.17 6.30366L6.97933 5.98499L6 4.00033L5.02 5.98499L2.83 6.30366L4.41467 7.84899L4.04133 10.0303L6 9.00033Z" fill="#071219"/>
</svg>
