<svg width="172" height="26" viewBox="0 0 172 26" fill="none" xmlns="http://www.w3.org/2000/svg">
<path fill-rule="evenodd" clip-rule="evenodd" d="M98.401 19.3639V6.16602H94.7349V22.2968H105V19.3639H98.401Z" fill="#279DE1"/>
<path fill-rule="evenodd" clip-rule="evenodd" d="M12.7683 10.7433L12.1483 10.3672C12.2021 10.681 12.2303 11.0034 12.2303 11.3324C12.2303 11.983 12.1207 12.6076 11.9194 13.1896C11.8106 13.454 11.697 13.7159 11.5787 13.9754C10.3664 16.635 8.6647 19.024 6.58887 21.0274L18.1967 14.0353L12.7683 10.7433Z" fill="#279DE1"/>
<path fill-rule="evenodd" clip-rule="evenodd" d="M7.56717 15.8237C7.71354 15.5056 7.84302 15.1781 7.95399 14.842C8.263 13.9073 8.43072 12.9083 8.43072 11.8697C8.43072 10.2727 8.03464 8.76854 7.33643 7.44917L4.82927 5.92863L0 3C0.845775 4.56027 1.51696 6.22912 1.98786 7.98011C2.50387 9.89897 2.77913 11.9164 2.77913 13.9982C2.77913 14.5077 2.76255 15.0132 2.72999 15.5144C2.60887 17.3864 2.26476 19.1976 1.72426 20.9218C1.2783 22.3443 0.698814 23.7075 0 24.9967L1.97114 23.8092C4.05369 21.8781 5.77929 19.5674 7.03877 16.9867C7.22516 16.6048 7.40154 16.2171 7.56717 15.8237Z" fill="#279DE1"/>
<path fill-rule="evenodd" clip-rule="evenodd" d="M80.5008 9.09897H87.0999V6.16602H76.8347V22.2968H87.0999V19.3639H80.5008V15.6979H87.0999V12.7651H80.5008V9.09897Z" fill="#279DE1"/>
<path fill-rule="evenodd" clip-rule="evenodd" d="M42.0065 9.09897H48.6055V6.16602H38.3403V22.2968H48.6055V19.3639H42.0065V15.6979H48.6055V12.7651H42.0065V9.09897Z" fill="#279DE1"/>
<path fill-rule="evenodd" clip-rule="evenodd" d="M89.2993 22.2968H92.9654V6.16602H89.2993V22.2968Z" fill="#279DE1"/>
<path fill-rule="evenodd" clip-rule="evenodd" d="M63.6367 6.16602V9.09897H67.3028V22.2968H70.969V9.09897H74.6351V6.16602H63.6367Z" fill="#279DE1"/>
<path fill-rule="evenodd" clip-rule="evenodd" d="M54.4714 9.0988H56.3044C57.3168 9.0988 58.1375 9.91933 58.1375 10.9318C58.1375 11.9442 57.3168 12.7649 56.3044 12.7649H54.4714V9.0988ZM62.9034 22.2968L58.4216 15.4934C60.3787 14.9004 61.8035 13.0828 61.8035 10.932C61.8035 8.29979 59.6698 6.16602 57.0376 6.16602H54.4713H50.8052V22.2968H54.4713V15.7046L58.8138 22.2968H62.9034Z" fill="#279DE1"/>
<path fill-rule="evenodd" clip-rule="evenodd" d="M31.7414 6.16602L28.6985 16.4311L25.8758 6.16602H21.4763L27.2322 22.2968H30.165L36.1407 6.16602H31.7414Z" fill="#279DE1"/>
<path d="M125.895 14.047C125.895 15.213 125.701 16.2837 125.312 17.259C124.923 18.2343 124.377 19.074 123.673 19.778C122.969 20.482 122.122 21.0283 121.132 21.417C120.142 21.8057 119.042 22 117.832 22H111.771V6.094H117.832C119.042 6.094 120.142 6.292 121.132 6.688C122.122 7.07667 122.969 7.623 123.673 8.327C124.377 9.02367 124.923 9.85967 125.312 10.835C125.701 11.8103 125.895 12.881 125.895 14.047ZM122.859 14.047C122.859 13.1743 122.742 12.3933 122.507 11.704C122.28 11.0073 121.946 10.4207 121.506 9.944C121.073 9.46 120.545 9.08967 119.922 8.833C119.306 8.57633 118.609 8.448 117.832 8.448H114.741V19.646H117.832C118.609 19.646 119.306 19.5177 119.922 19.261C120.545 19.0043 121.073 18.6377 121.506 18.161C121.946 17.677 122.28 17.0903 122.507 16.401C122.742 15.7043 122.859 14.9197 122.859 14.047ZM143.676 14.047C143.676 15.213 143.482 16.2947 143.093 17.292C142.712 18.282 142.169 19.14 141.465 19.866C140.761 20.592 139.914 21.1603 138.924 21.571C137.934 21.9743 136.834 22.176 135.624 22.176C134.422 22.176 133.325 21.9743 132.335 21.571C131.345 21.1603 130.495 20.592 129.783 19.866C129.079 19.14 128.533 18.282 128.144 17.292C127.756 16.2947 127.561 15.213 127.561 14.047C127.561 12.881 127.756 11.803 128.144 10.813C128.533 9.81567 129.079 8.954 129.783 8.228C130.495 7.502 131.345 6.93733 132.335 6.534C133.325 6.12333 134.422 5.918 135.624 5.918C136.431 5.918 137.19 6.01333 137.901 6.204C138.613 6.38733 139.265 6.65133 139.859 6.996C140.453 7.33333 140.985 7.74767 141.454 8.239C141.931 8.723 142.334 9.26567 142.664 9.867C142.994 10.4683 143.244 11.121 143.412 11.825C143.588 12.529 143.676 13.2697 143.676 14.047ZM140.651 14.047C140.651 13.1743 140.534 12.3933 140.299 11.704C140.065 11.0073 139.731 10.417 139.298 9.933C138.866 9.449 138.338 9.07867 137.714 8.822C137.098 8.56533 136.402 8.437 135.624 8.437C134.847 8.437 134.147 8.56533 133.523 8.822C132.907 9.07867 132.379 9.449 131.939 9.933C131.507 10.417 131.173 11.0073 130.938 11.704C130.704 12.3933 130.586 13.1743 130.586 14.047C130.586 14.9197 130.704 15.7043 130.938 16.401C131.173 17.0903 131.507 17.677 131.939 18.161C132.379 18.6377 132.907 19.0043 133.523 19.261C134.147 19.5177 134.847 19.646 135.624 19.646C136.402 19.646 137.098 19.5177 137.714 19.261C138.338 19.0043 138.866 18.6377 139.298 18.161C139.731 17.677 140.065 17.0903 140.299 16.401C140.534 15.7043 140.651 14.9197 140.651 14.047ZM157.198 18.249C157.359 18.249 157.502 18.3113 157.627 18.436L158.793 19.701C158.148 20.5003 157.352 21.1127 156.406 21.538C155.467 21.9633 154.338 22.176 153.018 22.176C151.837 22.176 150.774 21.9743 149.828 21.571C148.889 21.1677 148.086 20.6067 147.419 19.888C146.752 19.1693 146.238 18.3113 145.879 17.314C145.527 16.3167 145.351 15.2277 145.351 14.047C145.351 12.8517 145.542 11.759 145.923 10.769C146.304 9.77167 146.84 8.91367 147.529 8.195C148.226 7.47633 149.054 6.919 150.015 6.523C150.976 6.11967 152.039 5.918 153.205 5.918C154.364 5.918 155.39 6.10867 156.285 6.49C157.187 6.87133 157.953 7.37 158.584 7.986L157.594 9.361C157.535 9.449 157.458 9.526 157.363 9.592C157.275 9.658 157.15 9.691 156.989 9.691C156.879 9.691 156.765 9.66167 156.648 9.603C156.531 9.537 156.402 9.46 156.263 9.372C156.124 9.27667 155.962 9.174 155.779 9.064C155.596 8.954 155.383 8.855 155.141 8.767C154.899 8.67167 154.617 8.59467 154.294 8.536C153.979 8.47 153.612 8.437 153.194 8.437C152.483 8.437 151.83 8.56533 151.236 8.822C150.649 9.07133 150.143 9.438 149.718 9.922C149.293 10.3987 148.963 10.9853 148.728 11.682C148.493 12.3713 148.376 13.1597 148.376 14.047C148.376 14.9417 148.501 15.7373 148.75 16.434C149.007 17.1307 149.351 17.7173 149.784 18.194C150.217 18.6707 150.726 19.0373 151.313 19.294C151.9 19.5433 152.53 19.668 153.205 19.668C153.608 19.668 153.971 19.646 154.294 19.602C154.624 19.558 154.925 19.4883 155.196 19.393C155.475 19.2977 155.735 19.1767 155.977 19.03C156.226 18.876 156.472 18.689 156.714 18.469C156.787 18.403 156.864 18.3517 156.945 18.315C157.026 18.271 157.11 18.249 157.198 18.249ZM169.29 8.987C169.202 9.141 169.106 9.25467 169.004 9.328C168.908 9.394 168.787 9.427 168.641 9.427C168.487 9.427 168.318 9.372 168.135 9.262C167.959 9.14467 167.746 9.01633 167.497 8.877C167.247 8.73767 166.954 8.613 166.617 8.503C166.287 8.38567 165.894 8.327 165.44 8.327C165.029 8.327 164.67 8.37833 164.362 8.481C164.054 8.57633 163.793 8.712 163.581 8.888C163.375 9.064 163.221 9.27667 163.119 9.526C163.016 9.768 162.965 10.0357 162.965 10.329C162.965 10.703 163.067 11.0147 163.273 11.264C163.485 11.5133 163.764 11.726 164.109 11.902C164.453 12.078 164.846 12.2357 165.286 12.375C165.726 12.5143 166.177 12.6647 166.639 12.826C167.101 12.98 167.552 13.1633 167.992 13.376C168.432 13.5813 168.824 13.8453 169.169 14.168C169.513 14.4833 169.788 14.872 169.994 15.334C170.206 15.796 170.313 16.357 170.313 17.017C170.313 17.7357 170.188 18.4103 169.939 19.041C169.697 19.6643 169.337 20.2107 168.861 20.68C168.391 21.142 167.816 21.5087 167.134 21.78C166.452 22.044 165.671 22.176 164.791 22.176C164.285 22.176 163.786 22.1247 163.295 22.022C162.803 21.9267 162.33 21.7873 161.876 21.604C161.428 21.4207 161.007 21.2007 160.611 20.944C160.215 20.6873 159.863 20.4013 159.555 20.086L160.424 18.667C160.497 18.5643 160.592 18.48 160.71 18.414C160.827 18.3407 160.952 18.304 161.084 18.304C161.267 18.304 161.465 18.381 161.678 18.535C161.89 18.6817 162.143 18.8467 162.437 19.03C162.73 19.2133 163.071 19.382 163.46 19.536C163.856 19.6827 164.329 19.756 164.879 19.756C165.722 19.756 166.375 19.558 166.837 19.162C167.299 18.7587 167.53 18.183 167.53 17.435C167.53 17.017 167.423 16.676 167.211 16.412C167.005 16.148 166.73 15.928 166.386 15.752C166.041 15.5687 165.649 15.4147 165.209 15.29C164.769 15.1653 164.321 15.0297 163.867 14.883C163.412 14.7363 162.965 14.5603 162.525 14.355C162.085 14.1497 161.692 13.882 161.348 13.552C161.003 13.222 160.724 12.8113 160.512 12.32C160.306 11.8213 160.204 11.209 160.204 10.483C160.204 9.90367 160.317 9.339 160.545 8.789C160.779 8.239 161.117 7.75133 161.557 7.326C161.997 6.90067 162.539 6.55967 163.185 6.303C163.83 6.04633 164.571 5.918 165.407 5.918C166.345 5.918 167.211 6.06467 168.003 6.358C168.795 6.65133 169.469 7.062 170.027 7.59L169.29 8.987Z" fill="#004369"/>
</svg>
